<svg version="1.2" xmlns="http://www.w3.org/2000/svg" viewBox="0 0 24 24" width="24" height="24"><style>.a{fill:#424242}</style><path class="a" d="m24 4.6q-0.2 0.4-0.5 0.7-0.3 0.4-0.6 0.7-0.3 0.3-0.7 0.6-0.3 0.3-0.7 0.5 0.1 0.4 0.1 0.7c0 6.5-5 14-14 14q-1 0-2-0.2-1-0.1-2-0.4-0.9-0.3-1.8-0.7-1-0.4-1.8-1 0.6 0.1 1.2 0.1 0.8 0 1.6-0.1 0.8-0.2 1.6-0.4 0.8-0.3 1.5-0.7 0.7-0.4 1.4-0.9-0.8 0-1.5-0.3-0.8-0.2-1.4-0.7-0.6-0.4-1-1.1-0.5-0.6-0.7-1.3 0.2 0 0.5 0.1 0.3 0 0.6 0 0.3 0 0.5-0.1 0.3 0 0.6-0.1-0.9-0.2-1.6-0.6-0.7-0.4-1.3-1.1-0.5-0.7-0.8-1.5-0.3-0.8-0.3-1.6v-0.1q0.3 0.2 0.6 0.3 0.2 0.1 0.5 0.2 0.3 0 0.6 0.1 0.3 0 0.6 0c-1.4-0.8-2.2-2.4-2.2-4.1q0-0.3 0-0.6 0.1-0.3 0.1-0.6 0.1-0.4 0.2-0.7 0.2-0.3 0.3-0.5c2.5 2.9 6.1 4.9 10.2 5.1-0.3-1.1-0.2-2.2 0.3-3.2 0.4-0.9 1.2-1.8 2.2-2.3 0.9-0.5 2-0.7 3.1-0.5 1 0.2 2 0.7 2.8 1.5q1.7-0.3 3.1-1.2-0.1 0.4-0.4 0.8-0.2 0.4-0.4 0.8-0.3 0.3-0.7 0.6-0.3 0.3-0.7 0.5 0.4 0 0.8-0.1 0.3 0 0.7-0.1 0.3-0.1 0.7-0.3 0.3-0.1 0.7-0.2z"/></svg>